<?xml version="1.0" standalone="no"?>
<!DOCTYPE svg PUBLIC "-//W3C//DTD SVG 20010904//EN"
 "http://www.w3.org/TR/2001/REC-SVG-20010904/DTD/svg10.dtd">
<svg version="1.0" xmlns="http://www.w3.org/2000/svg"
 width="16.000000pt" height="16.000000pt" viewBox="0 0 16.000000 16.000000"
 preserveAspectRatio="xMidYMid meet">
<metadata>
Created by potrace 1.11, written by Peter Selinger 2001-2013
</metadata>
<g transform="translate(0.000000,16.000000) scale(0.003556,-0.003556)"
fill="#000000" stroke="none">
<path d="M2089 4496 c-2 -2 -35 -6 -74 -10 -197 -18 -429 -76 -624 -157 -514
-214 -931 -608 -1170 -1109 -110 -233 -172 -444 -205 -710 -13 -102 -14 -465
-2 -520 3 -14 8 -46 11 -71 3 -25 8 -56 10 -70 3 -13 7 -35 10 -49 3 -14 9
-40 14 -57 5 -18 8 -33 6 -33 -2 0 5 -26 16 -57 11 -32 19 -58 18 -58 -4 0 25
-84 59 -170 131 -331 336 -622 608 -865 76 -68 265 -210 279 -210 2 0 31 -17
62 -37 199 -127 560 -255 818 -289 28 -3 59 -8 70 -11 11 -2 106 -6 210 -8
165 -2 335 9 435 28 294 58 552 156 784 299 56 34 106 66 111 70 6 4 44 34 85
65 198 152 378 347 519 562 180 275 320 669 348 981 14 152 6 529 -12 582 -2
7 -6 27 -9 43 -26 175 -103 411 -196 602 -300 615 -864 1060 -1533 1209 -59
13 -136 26 -170 30 -34 4 -66 9 -71 12 -9 5 -401 13 -407 8z"/>
</g>
</svg>
