<?xml version="1.0" standalone="no"?>
<!DOCTYPE svg PUBLIC "-//W3C//DTD SVG 20010904//EN"
 "http://www.w3.org/TR/2001/REC-SVG-20010904/DTD/svg10.dtd">
<svg version="1.0" xmlns="http://www.w3.org/2000/svg"
 width="16.000000pt" height="16.000000pt" viewBox="0 0 16.000000 16.000000"
 preserveAspectRatio="xMidYMid meet">
<metadata>
Created by potrace 1.11, written by Peter Selinger 2001-2013
</metadata>
<g transform="translate(0.000000,16.000000) scale(0.004000,-0.004000)"
fill="#000000" stroke="none">
<path d="M0 2000 l0 -2000 2000 0 2000 0 0 2000 0 2000 -2000 0 -2000 0 0
-2000z m2089 825 l1041 -619 0 -171 -1 -170 -1041 -625 c-572 -344 -1045 -627
-1049 -628 -6 -2 -8 85 -7 203 l3 207 829 493 c455 271 832 497 837 502 5 5
-356 231 -829 520 l-837 510 -3 203 c-1 122 1 200 7 198 5 -1 478 -282 1050
-623z"/>
</g>
</svg>
